# xmcd CD database file
#
# Track frame offsets:
#	150
#	12125
#	22810
#	33151
#	45268
#	57998
#	69058
#	80858
#	91373
#	103680
#	115325
#	126828
#	137823
#	150866
#
# Disc length: 2158 seconds
#
# Revision: 1
# Processed by: cddbd v1.5.2PL0 Copyright (c) Steve Scherf et al.
# Submitted via: CDex 1.51
#
DISCID=a2086c0e
DTITLE=George Jones - Mr. Country and Western Music
DYEAR=2011
DGENRE=Country
TTITLE0=I Just Lost My Favority Girl
TTITLE1=What's Bad For You Is Good For Me
TTITLE2=Don't You Ever Get Tired
TTITLE3=How Proud I Would Have Been
TTITLE4=Flowers For Mama
TTITLE5=Gonna Take Me Away From You
TTITLE6=I Can't Get Used To Being Lonely
TTITLE7=Let A Little Lovin' Come In
TTITLE8=The Selfishness In Man
TTITLE9=Worst Of Luck
TTITLE10=Even The Bad Times Are Good
TTITLE11=The Sea Between Our Hearts
TTITLE12=Things Have Gone To Pieces
TTITLE13=Wearing Away My Heart
EXTD=YEAR: 2011
EXTT0=
EXTT1=
EXTT2=
EXTT3=
EXTT4=
EXTT5=
EXTT6=
EXTT7=
EXTT8=
EXTT9=
EXTT10=
EXTT11=
EXTT12=
EXTT13=
PLAYORDER=
